<svg enable-background="new 0 0 140 140" height="512" viewBox="0 0 140 140" width="512" xmlns="http://www.w3.org/2000/svg"><circle cx="70" cy="70" fill="#509fd7" r="64"/><path d="m132.1400146 54.6899414c1.209961 4.9101563 1.8599854 10.0297852 1.8599854 15.3100586 0 35.3500977-28.6500244 64-64 64-.9699707 0-1.9299316-.0302734-2.8800049-.0698242l-25.7399902-25.7402344.0200195-.0097656c-.9000244-.8203125-1.4700928-1.9799805-1.4700928-3.2802734v-1.4399414l-2.5100098-2.5097656c-.6599121-.6503906-1.079834-1.5600586-1.079834-2.5600586 0-1.9799805 1.6098633-3.6000977 3.5898438-3.6000977v-.0800781l-2.4299316-2.4399415c-.7099609-.6601562-1.1599121-1.5898438-1.1599121-2.6298828 0-1.9799805 1.6098633-3.590332 3.5898438-3.590332v-.0800781l-2.4799805-2.4897461c-.0400391-.0400391-.0699463-.0800781-.1098633-.1201172l-.0400391-.0297852.0100098-.0102539c-.6000977-.6396484-.9699707-1.4897461-.9699707-2.4296875 0-1.9799805 1.6098633-3.590332 3.5898438-3.590332v-.0898438l-2.4899902-2.4902344c-.6799316-.659668-1.0998535-1.5698242-1.0998535-2.5795898 0-1.9799805 1.6098633-3.590332 3.5898438-3.590332v-.0898438l-2.4499512-2.4501953c-.6999512-.659668-1.1398926-1.5898438-1.1398926-2.6196289 0-1.9799805 1.6098633-3.590332 3.5898438-3.590332v-.1396484l-2.1599123-2.1601563c-.2600098-.2001953-.4899902-.4301758-.6899414-.6899414l-.0400391-.0400391h.0100098c-.4400635-.6000977-.7099609-1.3198242-.7099609-2.1201172 0-1.9799805 1.6098633-3.6000977 3.5898438-3.6000977v-.0800781l-2.5200195-2.5195312c-.0098877-.0102539-.0198975-.0200195-.0299072-.0302734l-.0699463-.0698242h.0100098c-.6000977-.6401367-.9799805-1.5-.9799805-2.4501953 0-1.9799805 1.6098633-3.5898438 3.5898438-3.5898438v-.1298828l-2.3898926-2.3701172c-.7299805-.6601562-1.1999512-1.6000977-1.1999512-2.6601562 0-1.9799805 1.6098633-3.5898438 3.5898438-3.5898438v-2.9199219c0-2.4501953 1.9799805-4.4301758 4.4300537-4.4301758h59.2999268z" opacity=".1"/><path d="m44.3602753 26.2109795c-2.4468307 0-4.4304428 1.9835453-4.4304428 4.4304447v74.25383c0 2.4468307 1.9836121 4.4304504 4.4304428 4.4304504h10.7201843v-83.1147251z" fill="#344e5c"/><path d="m54.58041 26.210962h49.081562v83.114723h-49.081562z" fill="#dad7dc"/><g fill="#b0b1b5"><path d="m39.9298325 40.7420006c-1.9804153 0-3.5918045-1.6110039-3.5918045-3.591423 0-1.9804153 1.6113892-3.592186 3.5918045-3.592186v1.1772156c-1.3312645 0-2.4145927 1.0837097-2.4145927 2.4149704 0 1.3312645 1.0833282 2.4142075 2.4145927 2.4142075 1.3312607 0 2.4145889-1.082943 2.4145889-2.4142075h1.1772156c0 1.9804191-1.6113892 3.591423-3.5918045 3.591423z"/><path d="m39.9298325 49.4900398c-1.9804153 0-3.5918045-1.6110039-3.5918045-3.5914192s1.6113892-3.592186 3.5918045-3.592186v1.1772118c-1.3312645 0-2.4145927 1.0837135-2.4145927 2.4149742 0 1.3312645 1.0833282 2.4142075 2.4145927 2.4142075 1.3312607 0 2.4145889-1.082943 2.4145889-2.4142075h1.1772156c0 1.9804153-1.6113892 3.5914192-3.5918045 3.5914192z"/><path d="m39.9298325 58.2380829c-1.9804153 0-3.5918045-1.6110039-3.5918045-3.5914192 0-1.9804192 1.6113892-3.5921898 3.5918045-3.5921898v1.1772156c-1.3312645 0-2.4145927 1.0837097-2.4145927 2.4149742 0 1.3312607 1.0833282 2.4142075 2.4145927 2.4142075 1.3312607 0 2.4145889-1.0829468 2.4145889-2.4142075h1.1772156c0 1.9804153-1.6113892 3.5914192-3.5918045 3.5914192z"/><path d="m39.9298325 66.9861221c-1.9804153 0-3.5918045-1.6110001-3.5918045-3.5914192 0-1.9804153 1.6113892-3.592186 3.5918045-3.592186v1.1772156c-1.3312645 0-2.4145927 1.0837097-2.4145927 2.4149704 0 1.3312645 1.0833282 2.4142113 2.4145927 2.4142113 1.3312607 0 2.4145889-1.0829468 2.4145889-2.4142113h1.1772156c0 1.9804192-1.6113892 3.5914192-3.5918045 3.5914192z"/><path d="m39.9298325 75.734169c-1.9804153 0-3.5918045-1.6110077-3.5918045-3.591423s1.6113892-3.592186 3.5918045-3.592186v1.1772156c-1.3312645 0-2.4145927 1.0837097-2.4145927 2.4149704s1.0833282 2.4142075 2.4145927 2.4142075c1.3312607 0 2.4145889-1.0829468 2.4145889-2.4142075h1.1772156c0 1.9804153-1.6113892 3.591423-3.5918045 3.591423z"/><path d="m39.9298325 84.4822083c-1.9804153 0-3.5918045-1.6110077-3.5918045-3.591423s1.6113892-3.592186 3.5918045-3.592186v1.1772156c-1.3312645 0-2.4145927 1.0837097-2.4145927 2.4149704 0 1.3312683 1.0833282 2.4142075 2.4145927 2.4142075 1.3312607 0 2.4145889-1.0829391 2.4145889-2.4142075h1.1772156c0 1.9804153-1.6113892 3.591423-3.5918045 3.591423z"/><path d="m39.9298325 93.2302475c-1.9804153 0-3.5918045-1.6110001-3.5918045-3.5914154 0-1.980423 1.6113892-3.5921936 3.5918045-3.5921936v1.1772156c-1.3312645 0-2.4145927 1.0837097-2.4145927 2.414978 0 1.3312607 1.0833282 2.4142075 2.4145927 2.4142075 1.3312607 0 2.4145889-1.0829468 2.4145889-2.4142075h1.1772156c0 1.9804153-1.6113892 3.5914154-3.5918045 3.5914154z"/><path d="m39.9298325 101.9782944c-1.9804153 0-3.5918045-1.6110077-3.5918045-3.591423s1.6113892-3.592186 3.5918045-3.592186v1.1772156c-1.3312645 0-2.4145927 1.0837097-2.4145927 2.4149704s1.0833282 2.4142075 2.4145927 2.4142075c1.3312607 0 2.4145889-1.0829468 2.4145889-2.4142075h1.1772156c0 1.9804153-1.6113892 3.591423-3.5918045 3.591423z"/></g><path d="m97.9702835 47.4436035-6.4512482-4.5614929-6.4512558 4.5614929v-21.232624h12.902504z" fill="#dc594e"/><circle cx="79.371" cy="77.299" fill="#e6e7e8" r="13.818"/><path d="m82.2788925 81.2356796c-.3733673.3492813-1.0474472.4558105-1.5102234.1848373-2.2759628-1.3449783-4.1749802-3.2443085-5.5200806-5.5201111-.2708359-.4626083-.1641693-1.1365356.1848831-1.5101318l-2.5173035-6.1334c-.6846161.1272507-1.2743301.4051819-1.7266846.8575745-2.2277145 2.2276688-.3701935 7.6970978 4.1489258 12.2162323 4.519165 4.5191345 9.9886017 6.3767014 12.2163086 4.1489716.4525604-.4525528.7352524-1.0396347.8621063-1.724823z" fill="#ba9a43"/><g fill="#d6b251"><path d="m74.8901825 68.7494049c-.1294632-.3329697-.4460068-.5535355-.8029175-.5687103-.4146881-.0176697-.8060608.0083771-1.1710968.0761871l2.5173035 6.1334076c.034462-.0368729.0685425-.0743942.107666-.1048431.2085266-.1622162.4176941-.3249207.6274643-.4881744.3107834-.2418823.4274826-.6602783.28479-1.0272903z"/><path d="m88.4823532 82.4681549c-.0218201-.3393326-.2479935-.6316757-.5649261-.7548981l-3.9795609-1.5473862c-.367012-.1426926-.7843399-.0274048-1.0261612.2833786-.1766281.2269821-.3526535.4532547-.5280304.6787109-.030426.0391541-.0679245.0732498-.1047745.1077271l6.1379242 2.5191498c.0737153-.398056.0949479-.829132.0655289-1.2866821z"/></g></svg>